<svg width="178" height="170" viewBox="0 0 178 170" fill="none" xmlns="http://www.w3.org/2000/svg">
<path d="M6.25207 134.195V142.35H15.1421V144.975H6.25207V153.375H16.1921V156H3.06707V131.57H16.1921V134.195H6.25207ZM19.8214 146.375C19.8214 144.392 20.2181 142.665 21.0114 141.195C21.8047 139.702 22.9014 138.547 24.3014 137.73C25.7247 136.913 27.3464 136.505 29.1664 136.505C31.5231 136.505 33.4597 137.077 34.9764 138.22C36.5164 139.363 37.5314 140.95 38.0214 142.98H34.5914C34.2647 141.813 33.6231 140.892 32.6664 140.215C31.7331 139.538 30.5664 139.2 29.1664 139.2C27.3464 139.2 25.8764 139.83 24.7564 141.09C23.6364 142.327 23.0764 144.088 23.0764 146.375C23.0764 148.685 23.6364 150.47 24.7564 151.73C25.8764 152.99 27.3464 153.62 29.1664 153.62C30.5664 153.62 31.7331 153.293 32.6664 152.64C33.5997 151.987 34.2414 151.053 34.5914 149.84H38.0214C37.5081 151.8 36.4814 153.375 34.9414 154.565C33.4014 155.732 31.4764 156.315 29.1664 156.315C27.3464 156.315 25.7247 155.907 24.3014 155.09C22.9014 154.273 21.8047 153.118 21.0114 151.625C20.2181 150.132 19.8214 148.382 19.8214 146.375ZM50.6362 156.315C48.8395 156.315 47.2062 155.907 45.7362 155.09C44.2895 154.273 43.1462 153.118 42.3062 151.625C41.4895 150.108 41.0812 148.358 41.0812 146.375C41.0812 144.415 41.5012 142.688 42.3412 141.195C43.2045 139.678 44.3712 138.523 45.8412 137.73C47.3112 136.913 48.9562 136.505 50.7762 136.505C52.5962 136.505 54.2412 136.913 55.7112 137.73C57.1812 138.523 58.3362 139.667 59.1762 141.16C60.0395 142.653 60.4712 144.392 60.4712 146.375C60.4712 148.358 60.0278 150.108 59.1412 151.625C58.2778 153.118 57.0995 154.273 55.6062 155.09C54.1128 155.907 52.4562 156.315 50.6362 156.315ZM50.6362 153.515C51.7795 153.515 52.8528 153.247 53.8562 152.71C54.8595 152.173 55.6645 151.368 56.2712 150.295C56.9012 149.222 57.2162 147.915 57.2162 146.375C57.2162 144.835 56.9128 143.528 56.3062 142.455C55.6995 141.382 54.9062 140.588 53.9262 140.075C52.9462 139.538 51.8845 139.27 50.7412 139.27C49.5745 139.27 48.5012 139.538 47.5212 140.075C46.5645 140.588 45.7945 141.382 45.2112 142.455C44.6278 143.528 44.3362 144.835 44.3362 146.375C44.3362 147.938 44.6162 149.257 45.1762 150.33C45.7595 151.403 46.5295 152.208 47.4862 152.745C48.4428 153.258 49.4928 153.515 50.6362 153.515ZM74.0039 136.47C76.3372 136.47 78.2272 137.182 79.6739 138.605C81.1205 140.005 81.8439 142.035 81.8439 144.695V156H78.6939V145.15C78.6939 143.237 78.2155 141.778 77.2589 140.775C76.3022 139.748 74.9955 139.235 73.3389 139.235C71.6589 139.235 70.3172 139.76 69.3139 140.81C68.3339 141.86 67.8439 143.388 67.8439 145.395V156H64.6589V136.82H67.8439V139.55C68.4739 138.57 69.3255 137.812 70.3989 137.275C71.4955 136.738 72.6972 136.47 74.0039 136.47ZM95.4116 156.315C93.6149 156.315 91.9816 155.907 90.5116 155.09C89.0649 154.273 87.9216 153.118 87.0816 151.625C86.2649 150.108 85.8566 148.358 85.8566 146.375C85.8566 144.415 86.2766 142.688 87.1166 141.195C87.9799 139.678 89.1466 138.523 90.6166 137.73C92.0866 136.913 93.7316 136.505 95.5516 136.505C97.3716 136.505 99.0166 136.913 100.487 137.73C101.957 138.523 103.112 139.667 103.952 141.16C104.815 142.653 105.247 144.392 105.247 146.375C105.247 148.358 104.803 150.108 103.917 151.625C103.053 153.118 101.875 154.273 100.382 155.09C98.8882 155.907 97.2316 156.315 95.4116 156.315ZM95.4116 153.515C96.5549 153.515 97.6282 153.247 98.6316 152.71C99.6349 152.173 100.44 151.368 101.047 150.295C101.677 149.222 101.992 147.915 101.992 146.375C101.992 144.835 101.688 143.528 101.082 142.455C100.475 141.382 99.6816 140.588 98.7016 140.075C97.7216 139.538 96.6599 139.27 95.5166 139.27C94.3499 139.27 93.2766 139.538 92.2966 140.075C91.3399 140.588 90.5699 141.382 89.9866 142.455C89.4032 143.528 89.1116 144.835 89.1116 146.375C89.1116 147.938 89.3916 149.257 89.9516 150.33C90.5349 151.403 91.3049 152.208 92.2616 152.745C93.2182 153.258 94.2682 153.515 95.4116 153.515ZM123.854 150.575H113.214L111.254 156H107.894L116.714 131.745H120.389L129.174 156H125.814L123.854 150.575ZM122.944 147.985L118.534 135.665L114.124 147.985H122.944ZM136.203 140.355C136.833 139.258 137.767 138.348 139.003 137.625C140.263 136.878 141.722 136.505 143.378 136.505C145.082 136.505 146.622 136.913 147.998 137.73C149.398 138.547 150.495 139.702 151.288 141.195C152.082 142.665 152.478 144.38 152.478 146.34C152.478 148.277 152.082 150.003 151.288 151.52C150.495 153.037 149.398 154.215 147.998 155.055C146.622 155.895 145.082 156.315 143.378 156.315C141.745 156.315 140.298 155.953 139.038 155.23C137.802 154.483 136.857 153.562 136.203 152.465V165.1H133.018V136.82H136.203V140.355ZM149.223 146.34C149.223 144.893 148.932 143.633 148.348 142.56C147.765 141.487 146.972 140.67 145.968 140.11C144.988 139.55 143.903 139.27 142.713 139.27C141.547 139.27 140.462 139.562 139.458 140.145C138.478 140.705 137.685 141.533 137.078 142.63C136.495 143.703 136.203 144.952 136.203 146.375C136.203 147.822 136.495 149.093 137.078 150.19C137.685 151.263 138.478 152.092 139.458 152.675C140.462 153.235 141.547 153.515 142.713 153.515C143.903 153.515 144.988 153.235 145.968 152.675C146.972 152.092 147.765 151.263 148.348 150.19C148.932 149.093 149.223 147.81 149.223 146.34ZM159.856 140.355C160.486 139.258 161.419 138.348 162.656 137.625C163.916 136.878 165.374 136.505 167.031 136.505C168.734 136.505 170.274 136.913 171.651 137.73C173.051 138.547 174.147 139.702 174.941 141.195C175.734 142.665 176.131 144.38 176.131 146.34C176.131 148.277 175.734 150.003 174.941 151.52C174.147 153.037 173.051 154.215 171.651 155.055C170.274 155.895 168.734 156.315 167.031 156.315C165.397 156.315 163.951 155.953 162.691 155.23C161.454 154.483 160.509 153.562 159.856 152.465V165.1H156.671V136.82H159.856V140.355ZM172.876 146.34C172.876 144.893 172.584 143.633 172.001 142.56C171.417 141.487 170.624 140.67 169.621 140.11C168.641 139.55 167.556 139.27 166.366 139.27C165.199 139.27 164.114 139.562 163.111 140.145C162.131 140.705 161.337 141.533 160.731 142.63C160.147 143.703 159.856 144.952 159.856 146.375C159.856 147.822 160.147 149.093 160.731 150.19C161.337 151.263 162.131 152.092 163.111 152.675C164.114 153.235 165.199 153.515 166.366 153.515C167.556 153.515 168.641 153.235 169.621 152.675C170.624 152.092 171.417 151.263 172.001 150.19C172.584 149.093 172.876 147.81 172.876 146.34Z" fill="#27AE60"/>
<g clip-path="url(#clip0)">
<path d="M65.8315 91.0046C58.4512 91.0046 52.4685 96.4734 52.4685 103.219C52.4685 109.965 58.4515 115.434 65.8315 115.434C73.2118 115.434 79.1945 109.965 79.1945 103.219C79.1948 96.4734 73.2118 91.0046 65.8315 91.0046ZM65.8315 110.005C61.7314 110.005 58.4077 106.967 58.4077 103.219C58.4077 99.4717 61.7314 96.4337 65.8315 96.4337C69.9316 96.4337 73.2553 99.4717 73.2553 103.219C73.2556 106.967 69.9316 110.005 65.8315 110.005Z" fill="#27AE60"/>
<path d="M122.254 91.0046C114.873 91.0046 108.891 96.4734 108.891 103.219C108.891 109.965 114.874 115.434 122.254 115.434C129.634 115.434 135.617 109.965 135.617 103.219C135.617 96.4734 129.634 91.0046 122.254 91.0046ZM122.254 110.005C118.153 110.005 114.83 106.967 114.83 103.219C114.83 99.4717 118.153 96.4337 122.254 96.4337C126.354 96.4337 129.677 99.4717 129.677 103.219C129.678 106.967 126.354 110.005 122.254 110.005Z" fill="#27AE60"/>
<path d="M152.395 19.7525C151.776 19.135 150.93 18.7484 150.019 18.6666L53.3595 17.4451L50.6869 9.98053C48.8041 4.99052 43.692 1.62177 37.9176 1.56592H27.9696C26.3295 1.56592 25 2.78114 25 4.2803C25 5.77946 26.3295 6.99468 27.9696 6.99468H37.9176C41.1464 7.05988 43.9895 8.95494 45.0447 11.7449L63.9015 63.7252L62.4169 66.8467C60.7609 70.75 61.2582 75.1433 63.7532 78.6542C66.2243 82.1024 70.3815 84.2305 74.8892 84.3544H132.648C134.288 84.3544 135.617 83.1392 135.617 81.64C135.617 80.1409 134.288 78.9257 132.648 78.9257H74.8889C72.3433 78.8675 70.0001 77.6434 68.6527 75.6684C67.3204 73.7175 67.0467 71.314 67.9104 69.1537L69.0984 66.7108L131.608 60.7391C138.474 60.0479 144.122 55.4831 145.713 49.3387L152.841 22.0593C153.162 21.2737 152.991 20.3902 152.395 19.7525ZM139.923 48.1175C138.959 52.0728 135.285 54.9903 130.866 55.3106L69.0984 61.1465L55.2898 22.8739L146.307 24.0954L139.923 48.1175Z" fill="#27AE60"/>
</g>
<defs>
<clipPath id="clip0">
<rect width="128" height="117" fill="white" transform="translate(25)"/>
</clipPath>
</defs>
</svg>
